<?xml version="1.0" encoding="UTF-8"?>
<svg version="1.1" xmlns="http://www.w3.org/2000/svg" width="350" height="350">
<path d="M0 0 C39.98472137 -0.02258384 79.96944108 -0.04049742 119.95416754 -0.05106533 C124.66955897 -0.05231611 129.38495039 -0.05361042 134.1003418 -0.05493164 C135.50852789 -0.05532511 135.50852789 -0.05532511 136.94516218 -0.05572652 C152.16669189 -0.06008356 167.38821784 -0.06797129 182.60974532 -0.0771528 C198.21635117 -0.08648841 213.82295505 -0.09205541 229.42956358 -0.09408849 C239.06773101 -0.09546392 248.70588781 -0.09981553 258.34405196 -0.10791647 C264.94397352 -0.11318279 271.54388956 -0.11480456 278.14381307 -0.11350138 C281.95752106 -0.11285782 285.77121044 -0.11387752 289.58491516 -0.11920547 C293.70965289 -0.12492623 297.83435043 -0.12300123 301.95909119 -0.12025452 C303.17793611 -0.12316736 304.39678103 -0.1260802 305.65256065 -0.12908131 C307.29622654 -0.12609474 307.29622654 -0.12609474 308.9730978 -0.12304783 C309.92657555 -0.12342755 310.8800533 -0.12380727 311.86242431 -0.1241985 C314 0 314 0 315 1 C315.10095564 3.65456193 315.13970998 6.28255176 315.1328125 8.9375 C315.13424759 10.13040649 315.13424759 10.13040649 315.13571167 11.34741211 C315.13639343 13.0320646 315.13453943 14.71671971 315.13037109 16.40136719 C315.12502275 18.98899197 315.13031619 21.57644316 315.13671875 24.1640625 C315.13605797 25.79687539 315.1347768 27.42968816 315.1328125 29.0625 C315.13483673 29.84165771 315.13686096 30.62081543 315.13894653 31.42358398 C315.11495105 36.88504895 315.11495105 36.88504895 314 38 C312.32668611 38.09722372 310.64923365 38.12371535 308.9730978 38.12304783 C307.32943191 38.1260344 307.32943191 38.1260344 305.65256065 38.12908131 C303.82429327 38.12471205 303.82429327 38.12471205 301.95909119 38.12025452 C300.67600132 38.12110894 299.39291145 38.12196337 298.07094008 38.12284368 C294.49309411 38.12509106 290.91527779 38.12106407 287.3374356 38.11606562 C283.48533811 38.11176477 279.63324241 38.11320728 275.78114319 38.1139679 C269.10167479 38.11449336 262.42221612 38.11134419 255.74275017 38.10573006 C246.08525139 38.09761813 236.42775733 38.09500015 226.77025551 38.09374207 C211.10326337 38.09155106 195.43627643 38.08488966 179.76928711 38.07543945 C164.5463056 38.06626659 149.32332551 38.05918514 134.1003418 38.05493164 C133.16268791 38.05466892 132.22503402 38.05440619 131.25896638 38.05413551 C126.55523865 38.05283051 121.85151091 38.05156679 117.14778316 38.05032361 C78.09851829 38.03994948 39.04925989 38.02205548 0 38 C0 25.46 0 12.92 0 0 Z M50 9 C49.42011746 11.17700784 49.42011746 11.17700784 49.5390625 13.59765625 C49.54292969 14.48130859 49.54679687 15.36496094 49.55078125 16.27539062 C49.57527344 17.19513672 49.59976563 18.11488281 49.625 19.0625 C49.62628906 19.98611328 49.62757812 20.90972656 49.62890625 21.86132812 C49.40448729 26.95983719 49.40448729 26.95983719 52 31 C56.17268912 31.44416897 56.17268912 31.44416897 59.875 29.75 C61.36050506 27.78595012 61.36050506 27.78595012 61 24 C59.68 24 58.36 24 57 24 C57 25.32 57 26.64 57 28 C56.01 28 55.02 28 54 28 C54 22.06 54 16.12 54 10 C54.99 10 55.98 10 57 10 C57 11.32 57 12.64 57 14 C58.32 14 59.64 14 61 14 C61.33425735 11.62625139 61.33425735 11.62625139 61 9 C59.26961928 7.09798258 59.26961928 7.09798258 57 6 C53.44224536 6 52.51316608 6.56047615 50 9 Z M103 9 C102.42011746 11.17700784 102.42011746 11.17700784 102.5390625 13.59765625 C102.54292969 14.48130859 102.54679687 15.36496094 102.55078125 16.27539062 C102.57527344 17.19513672 102.59976563 18.11488281 102.625 19.0625 C102.62628906 19.98611328 102.62757812 20.90972656 102.62890625 21.86132812 C102.40448729 26.95983719 102.40448729 26.95983719 105 31 C109.17268912 31.44416897 109.17268912 31.44416897 112.875 29.75 C114.36050506 27.78595012 114.36050506 27.78595012 114 24 C112.68 24 111.36 24 110 24 C110 25.32 110 26.64 110 28 C109.01 28 108.02 28 107 28 C107.495 19.09 107.495 19.09 108 10 C108.66 11.32 109.32 12.64 110 14 C111.32 14 112.64 14 114 14 C114.33425735 11.62625139 114.33425735 11.62625139 114 9 C112.26961928 7.09798258 112.26961928 7.09798258 110 6 C106.44224536 6 105.51316608 6.56047615 103 9 Z M183 8 C181.77283977 11.6814807 181.81593186 15.10410762 181.8125 18.9375 C181.80025391 19.65357422 181.78800781 20.36964844 181.77539062 21.10742188 C181.76484667 24.89973108 181.87690785 27.78599094 184 31 C184.78375 31 185.5675 31 186.375 31 C188.91666667 31 191.45833333 31 194 31 C194 26.38 194 21.76 194 17 C192.35 17 190.7 17 189 17 C189.33 20.63 189.66 24.26 190 28 C189.01 27.67 188.02 27.34 187 27 C186.67 21.39 186.34 15.78 186 10 C186.99 10 187.98 10 189 10 C189.33 10.99 189.66 11.98 190 13 C191.32 13 192.64 13 194 13 C193.72965366 10.56282742 193.72965366 10.56282742 193 8 C189.03323837 5.35549225 186.92705374 5.51286597 183 8 Z M293.34375 7.99609375 C290.43414572 11.72523656 290.31713826 14.52836011 290.5 19.0625 C290.49742187 19.76955078 290.49484375 20.47660156 290.4921875 21.20507812 C290.57082568 25.39256146 291.03824527 27.9673522 294 31 C294.928125 30.814375 295.85625 30.62875 296.8125 30.4375 C300 30 300 30 303 31 C303 26.38 303 21.76 303 17 C301.35 17 299.7 17 298 17 C298.33 20.63 298.66 24.26 299 28 C298.01 27.67 297.02 27.34 296 27 C296 21.72 296 16.44 296 11 C296.66 10.67 297.32 10.34 298 10 C298.33 10.99 298.66 11.98 299 13 C300.32 13 301.64 13 303 13 C302.72965366 10.56282742 302.72965366 10.56282742 302 8 C298.13396193 5.42264129 297.08103691 5.18763256 293.34375 7.99609375 Z M10 7 C10 14.92 10 22.84 10 31 C12.97 31 15.94 31 19 31 C19.33 30.01 19.66 29.02 20 28 C18.02 28 16.04 28 14 28 C14 25.36 14 22.72 14 20 C15.65 20 17.3 20 19 20 C19 19.01 19 18.02 19 17 C17.35 17 15.7 17 14 17 C14 14.69 14 12.38 14 10 C15.65 10 17.3 10 19 10 C19 9.01 19 8.02 19 7 C16.03 7 13.06 7 10 7 Z M23 7 C23 14.92 23 22.84 23 31 C26.3 31 29.6 31 33 31 C33 30.01 33 29.02 33 28 C31.35 27.67 29.7 27.34 28 27 C27.67 20.4 27.34 13.8 27 7 C25.68 7 24.36 7 23 7 Z M36 7 C35.97317208 10.81254623 35.95324523 14.62490612 35.9375 18.4375 C35.92912109 19.52611328 35.92074219 20.61472656 35.91210938 21.73632812 C35.90888672 22.77080078 35.90566406 23.80527344 35.90234375 24.87109375 C35.89710693 25.82943115 35.89187012 26.78776855 35.88647461 27.77514648 C35.7494687 29.97285339 35.7494687 29.97285339 37 31 C38.51928038 31.07179964 40.04167482 31.08392007 41.5625 31.0625 C42.80193359 31.04896484 42.80193359 31.04896484 44.06640625 31.03515625 C44.70449219 31.02355469 45.34257813 31.01195312 46 31 C46 30.01 46 29.02 46 28 C44.35 27.67 42.7 27.34 41 27 C40.67 24.69 40.34 22.38 40 20 C41.65 20 43.3 20 45 20 C45 19.01 45 18.02 45 17 C43.68 16.67 42.36 16.34 41 16 C40.67 14.02 40.34 12.04 40 10 C41.98 10 43.96 10 46 10 C46 9.01 46 8.02 46 7 C42.7 7 39.4 7 36 7 Z M64 7 C64 7.99 64 8.98 64 10 C65.32 10 66.64 10 68 10 C68 16.93 68 23.86 68 31 C68.99 31 69.98 31 71 31 C71 24.07 71 17.14 71 10 C72.32 10 73.64 10 75 10 C75 9.01 75 8.02 75 7 C71.37 7 67.74 7 64 7 Z M79 7 C79 14.92 79 22.84 79 31 C79.99 31 80.98 31 82 31 C82 27.37 82 23.74 82 20 C83.32 20 84.64 20 86 20 C86 23.63 86 27.26 86 31 C87.32 31 88.64 31 90 31 C90.02708567 29.39592672 90.04643483 27.7917215 90.0625 26.1875 C90.07410156 25.29417969 90.08570312 24.40085938 90.09765625 23.48046875 C90.11009967 20.86586209 90.11009967 20.86586209 89 18 C89.33 17.34 89.66 16.68 90 16 C90.25 12.5 90.25 12.5 90 9 C89.34 8.34 88.68 7.68 88 7 C85.03 7 82.06 7 79 7 Z M94 7 C94 14.59 94 22.18 94 30 C95.32 30.33 96.64 30.66 98 31 C98 23.08 98 15.16 98 7 C96.68 7 95.36 7 94 7 Z M120 7 C119.01 14.92 118.02 22.84 117 31 C118.32 31 119.64 31 121 31 C121 29.02 121 27.04 121 25 C122.65 25 124.3 25 126 25 C126 26.98 126 28.96 126 31 C127.32 31 128.64 31 130 31 C129.68957083 28.12476286 129.37672481 25.24982273 129.0625 22.375 C128.97548828 21.56675781 128.88847656 20.75851563 128.79882812 19.92578125 C128.32290463 15.58958942 127.77162811 11.29609164 127 7 C124.69 7 122.38 7 120 7 Z M134 7 C134 14.92 134 22.84 134 31 C136.97 31 139.94 31 143 31 C143 30.01 143 29.02 143 28 C141.35 28 139.7 28 138 28 C138 21.07 138 14.14 138 7 C136.68 7 135.36 7 134 7 Z M153 7 C153 14.92 153 22.84 153 31 C155.97 31 158.94 31 162 31 C162 30.01 162 29.02 162 28 C160.35 27.67 158.7 27.34 157 27 C156.67 24.69 156.34 22.38 156 20 C157.65 20 159.3 20 161 20 C161 19.01 161 18.02 161 17 C159.68 16.67 158.36 16.34 157 16 C156.67 14.02 156.34 12.04 156 10 C157.98 10 159.96 10 162 10 C162 9.01 162 8.02 162 7 C159.03 7 156.06 7 153 7 Z M166 7 C166 14.92 166 22.84 166 31 C166.99 31 167.98 31 169 31 C169.33 26.38 169.66 21.76 170 17 C170.99 21.62 171.98 26.24 173 31 C174.65 31 176.3 31 178 31 C178 23.08 178 15.16 178 7 C176.68 7 175.36 7 174 7 C174 11.62 174 16.24 174 21 C173.01 16.38 172.02 11.76 171 7 C169.35 7 167.7 7 166 7 Z M199 7 C199 14.92 199 22.84 199 31 C200.32 30.67 201.64 30.34 203 30 C202.67 22.41 202.34 14.82 202 7 C201.01 7 200.02 7 199 7 Z M207 7 C207 14.92 207 22.84 207 31 C208.32 31 209.64 31 211 31 C211.02712153 29.083412 211.04645097 27.1667127 211.0625 25.25 C211.07410156 24.18265625 211.08570313 23.1153125 211.09765625 22.015625 C211.01510087 19.46631499 210.74617558 17.42066409 210 15 C210.66 15 211.32 15 212 15 C212.07347656 15.97839844 212.07347656 15.97839844 212.1484375 16.9765625 C212.57242229 21.93279853 213.15665573 26.33019451 215 31 C216.32 31 217.64 31 219 31 C219 23.08 219 15.16 219 7 C218.01 7 217.02 7 216 7 C215.67 11.29 215.34 15.58 215 20 C214.01 15.71 213.02 11.42 212 7 C210.35 7 208.7 7 207 7 Z M224 7 C224 14.92 224 22.84 224 31 C226.97 31 229.94 31 233 31 C233.33 30.01 233.66 29.02 234 28 C232.02 28 230.04 28 228 28 C228 25.36 228 22.72 228 20 C229.65 20 231.3 20 233 20 C232.67 18.68 232.34 17.36 232 16 C230.68 16.33 229.36 16.66 228 17 C228 14.69 228 12.38 228 10 C229.65 10 231.3 10 233 10 C233 9.01 233 8.02 233 7 C230.03 7 227.06 7 224 7 Z M237 7 C237 14.92 237 22.84 237 31 C240.3 31 243.6 31 247 31 C247 30.01 247 29.02 247 28 C245.02 28 243.04 28 241 28 C241 25.36 241 22.72 241 20 C242.65 20 244.3 20 246 20 C246 19.01 246 18.02 246 17 C244.68 16.67 243.36 16.34 242 16 C241.67 14.02 241.34 12.04 241 10 C242.65 10 244.3 10 246 10 C246 9.01 246 8.02 246 7 C243.03 7 240.06 7 237 7 Z M251 7 C251 14.92 251 22.84 251 31 C251.99 31 252.98 31 254 31 C254 27.37 254 23.74 254 20 C255.32 20 256.64 20 258 20 C258 23.63 258 27.26 258 31 C259.32 31 260.64 31 262 31 C262.02708567 29.39592672 262.04643483 27.7917215 262.0625 26.1875 C262.07410156 25.29417969 262.08570313 24.40085938 262.09765625 23.48046875 C262.11009967 20.86586209 262.11009967 20.86586209 261 18 C261.33 17.67 261.66 17.34 262 17 C262.22918242 12.98342857 262.22918242 12.98342857 262 9 C261.34 8.34 260.68 7.68 260 7 C257.03 7 254.06 7 251 7 Z M266 7 C266.33 14.92 266.66 22.84 267 31 C267.99 31 268.98 31 270 31 C270 23.08 270 15.16 270 7 C268.68 7 267.36 7 266 7 Z M275 7 C275 14.92 275 22.84 275 31 C275.99 31 276.98 31 278 31 C278.33 26.05 278.66 21.1 279 16 C279.99 20.62 280.98 25.24 282 30 C283.65 30.33 285.3 30.66 287 31 C287 23.08 287 15.16 287 7 C286.01 7 285.02 7 284 7 C283.67 11.29 283.34 15.58 283 20 C282.01 15.71 281.02 11.42 280 7 C278.35 7 276.7 7 275 7 Z " fill="#010101" transform="translate(24,166)"/>
<path d="M0 0 C20 0 20 0 24.12109375 3.41796875 C25.36499023 5.69018555 25.36499023 5.69018555 26.4375 8.1875 C27.35210961 9.92816574 28.26885954 11.66770818 29.1875 13.40625 C29.63738281 14.32019531 30.08726563 15.23414062 30.55078125 16.17578125 C33.04241777 21.03145026 36.0166677 25.58209466 38.9375 30.1875 C39.99067132 31.88784486 41.04155765 33.58960774 42.08984375 35.29296875 C44.70863672 39.54021471 47.35525462 43.7684074 50 48 C50.33 32.16 50.66 16.32 51 0 C56.94 0 62.88 0 69 0 C69 25.74 69 51.48 69 78 C49 78 49 78 44.87890625 74.58203125 C43.63500977 72.30981445 43.63500977 72.30981445 42.5625 69.8125 C41.64789039 68.07183426 40.73114046 66.33229182 39.8125 64.59375 C39.36261719 63.67980469 38.91273437 62.76585937 38.44921875 61.82421875 C35.95758223 56.96854974 32.9833323 52.41790534 30.0625 47.8125 C29.00932868 46.11215514 27.95844235 44.41039226 26.91015625 42.70703125 C24.29136328 38.45978529 21.64474538 34.2315926 19 30 C18.67 45.84 18.34 61.68 18 78 C12.06 78 6.12 78 0 78 C0 52.26 0 26.52 0 0 Z " fill="#000000" transform="translate(24,78)"/>
<path d="M0 0 C7.72148322 5.38974819 12.85081952 13.23351842 14.5546875 22.52734375 C16.21258093 35.38808988 15.89352234 47.4254839 8.5546875 58.52734375 C2.68568234 66.11703451 -5.10544754 70.47755589 -14.4453125 72.52734375 C-27.7021343 73.33600988 -39.40020776 73.24136571 -49.9453125 64.15234375 C-58.52033389 55.72824274 -62.4991203 45.9816161 -62.6953125 33.96484375 C-62.55532247 22.55565605 -59.60695428 11.78507351 -51.44140625 3.4921875 C-37.35119136 -8.37988981 -15.66281601 -9.43271827 0 0 Z M-37.32421875 12.93359375 C-42.54336408 18.4797532 -44.53526574 25.58870889 -44.7578125 33.08984375 C-44.45829734 40.46052107 -43.19554143 46.69134821 -38.4453125 52.52734375 C-32.53722217 57.85903502 -27.6398487 57.87237601 -19.90625 57.80859375 C-14.06744413 57.3341084 -11.22299823 55.35307504 -7.1328125 51.15234375 C-1.6970278 42.69667866 -1.87912483 32.79651965 -3.71875 23.23046875 C-5.25856359 17.50169991 -8.50013285 13.67427626 -13.4453125 10.52734375 C-21.43391231 7.72096936 -30.27833046 7.66016385 -37.32421875 12.93359375 Z " fill="#000000" transform="translate(163.4453125,83.47265625)"/>
<path d="M0 0 C6.6 0 13.2 0 20 0 C25.52889628 15.09094879 30.81696233 30.23551041 35.81201172 45.51025391 C36.21436035 46.73405762 36.61670898 47.95786133 37.03125 49.21875 C37.38767578 50.31123047 37.74410156 51.40371094 38.11132812 52.52929688 C38.77033738 54.91235416 38.77033738 54.91235416 40 56 C40.22328476 55.32792511 40.44656952 54.65585022 40.67662048 53.96340942 C42.77921984 47.63558977 44.88325551 41.30824977 46.98891354 34.98144722 C48.07144897 31.7286182 49.15342443 28.47560515 50.23413086 25.22216797 C51.47604596 21.48349784 52.7203775 17.74563426 53.96484375 14.0078125 C54.35341049 12.83695099 54.74197723 11.66608948 55.14231873 10.45974731 C55.50261673 9.37877777 55.86291473 8.29780823 56.23413086 7.18408203 C56.55167831 6.22921906 56.86922577 5.27435608 57.19639587 4.29055786 C58 2 58 2 59 0 C65.6 0 72.2 0 79 0 C76.26868939 9.64279909 72.8414964 19.01719026 69.4375 28.4375 C68.81218521 30.17339577 68.18694167 31.90931722 67.56176758 33.64526367 C53.03923275 73.92153449 53.03923275 73.92153449 51 78 C43.41 78 35.82 78 28 78 C26.98421875 75.20660156 25.9684375 72.41320312 24.921875 69.53515625 C24.5724585 68.57430618 24.22304199 67.61345612 23.86303711 66.62348938 C22.09717943 61.76758034 20.33158319 56.91157646 18.56640625 52.05541992 C15.13776875 42.62367372 11.70694028 33.19275367 8.265625 23.765625 C7.43791577 21.49636898 6.61034313 19.22706321 5.78283691 16.95773315 C5.26119562 15.52826276 4.73897929 14.09900207 4.21618652 12.66995239 C3.49688486 10.70365517 2.7794787 8.73667644 2.0625 6.76953125 C1.66160156 5.67229736 1.26070312 4.57506348 0.84765625 3.44458008 C0 1 0 1 0 0 Z " fill="#000000" transform="translate(177,78)"/>
<path d="M0 0 C6.93 0 13.86 0 21 0 C20.20190089 3.19239645 19.41362874 5.39297664 17.9375 8.25 C17.57527344 8.95640625 17.21304688 9.6628125 16.83984375 10.390625 C16.56269531 10.92171875 16.28554688 11.4528125 16 12 C19.55780196 11.39009109 22.6828589 10.4216319 26 9 C28.475 11.97 28.475 11.97 31 15 C30.505 15.391875 30.01 15.78375 29.5 16.1875 C27.78158316 17.94454432 27.78158316 17.94454432 27.625 20.5625 C27.74875 21.366875 27.8725 22.17125 28 23 C31.44450737 25.29633824 33.93812283 25.54016485 38 26 C38.495 29.465 38.495 29.465 39 33 C37.02 34.32 35.04 35.64 33 37 C33.30618405 40.67420866 33.75771784 41.78135513 36.5625 44.3125 C37.366875 44.869375 38.17125 45.42625 39 46 C38.34 48.31 37.68 50.62 37 53 C34.03 53.66 31.06 54.32 28 55 C28.50712033 58.71888239 29.11608215 61.73454239 31 65 C28.75 67.5625 28.75 67.5625 26 70 C24.0625 69.9375 24.0625 69.9375 22 69 C20.9275 68.649375 19.855 68.29875 18.75 67.9375 C17.38875 67.4734375 17.38875 67.4734375 16 67 C14.41727399 68.58272601 14.65264253 70.38034003 14.4375 72.5625 C14.31181641 73.80193359 14.31181641 73.80193359 14.18359375 75.06640625 C14.12300781 75.70449219 14.06242187 76.34257812 14 77 C11.36 77.33 8.72 77.66 6 78 C4.68 76.02 3.36 74.04 2 72 C0.08533633 72.12177688 0.08533633 72.12177688 -2 73 C-2.6496875 74.2684375 -2.6496875 74.2684375 -3.3125 75.5625 C-3.869375 76.366875 -4.42625 77.17125 -5 78 C-8.5625 78.4375 -8.5625 78.4375 -12 78 C-12.66 77.34 -13.32 76.68 -14 76 C-14.99 76.99 -14.99 76.99 -16 78 C-17.36313665 73.91059005 -15.92840417 71.21719631 -14.5078125 67.33984375 C-14.10971878 66.22132774 -14.10971878 66.22132774 -13.70358276 65.08021545 C-12.85257225 62.69615999 -11.98881159 60.31694321 -11.125 57.9375 C-10.54997236 56.33036731 -9.97574377 54.72294849 -9.40234375 53.11523438 C-5.23011634 41.46023267 -5.23011634 41.46023267 -4 39 C-5.27875 39.20625 -6.5575 39.4125 -7.875 39.625 C-10.0546875 39.9765625 -10.0546875 39.9765625 -12 40 C-12.66 39.34 -13.32 38.68 -14 38 C-12.32867748 33.39146736 -10.65628271 28.78332577 -8.98291016 24.17553711 C-8.41425855 22.60923692 -7.84589576 21.04283185 -7.27783203 19.47631836 C-6.45942591 17.21961005 -5.63996853 14.96328584 -4.8203125 12.70703125 C-4.56814972 12.01100296 -4.31598694 11.31497467 -4.05618286 10.59785461 C-2.7614902 7.03724616 -1.40764095 3.51910237 0 0 Z M13 15 C13 18 13 18 13 18 Z M11 18 C8.51181022 21.6698479 8.51181022 21.6698479 8 26 C10.64 25.67 13.28 25.34 16 25 C14.02 21.535 14.02 21.535 12 18 C11.67 18 11.34 18 11 18 Z M16 28 C14.49665283 29.92119175 14.49665283 29.92119175 12.98828125 32.42578125 C12.09786133 33.84020508 12.09786133 33.84020508 11.18945312 35.28320312 C10.57005859 36.28287109 9.95066406 37.28253906 9.3125 38.3125 C8.10026042 40.24609375 6.88802083 42.1796875 5.67578125 44.11328125 C5.07588379 45.0770166 4.47598633 46.04075195 3.85791016 47.03369141 C1.36491649 51.01396382 -1.17800421 54.96163274 -3.72583008 58.90698242 C-5.08666573 60.73396939 -5.08666573 60.73396939 -5 62 C1.08211987 62.38013249 6.7132499 62.34309198 12 59 C17.41682401 53.66560593 18.85018936 48.99641924 19.1328125 41.45703125 C19.13023437 40.25433594 19.12765625 39.05164063 19.125 37.8125 C19.12757813 36.60207031 19.13015625 35.39164063 19.1328125 34.14453125 C19.14363859 30.97106051 19.14363859 30.97106051 18 28 C17.34 28 16.68 28 16 28 Z M-6 62 C-6 65 -6 65 -6 65 Z M-8 65 C-7 67 -7 67 -7 67 Z M-9 67 C-9 70 -9 70 -9 70 Z M-12 71 C-11 73 -11 73 -11 73 Z " fill="#020101" transform="translate(294,78)"/>
<path d="M0 0 C6.93 0 13.86 0 21 0 C20.13279649 3.46881405 19.30991379 5.44836423 17.53125 8.44140625 C17.04269531 9.27220703 16.55414063 10.10300781 16.05078125 10.95898438 C15.28314453 12.24772461 15.28314453 12.24772461 14.5 13.5625 C13.48709439 15.27066197 12.47657033 16.98023902 11.46875 18.69140625 C11.01951172 19.44623291 10.57027344 20.20105957 10.10742188 20.97875977 C8.86822493 23.09780679 8.86822493 23.09780679 8 26 C10.97 25.67 13.94 25.34 17 25 C16.43592502 28.75623593 15.43647366 31.28522264 13.33984375 34.44140625 C12.79739014 35.26640625 12.25493652 36.09140625 11.69604492 36.94140625 C11.1157251 37.80636719 10.53540527 38.67132813 9.9375 39.5625 C9.34622314 40.45710938 8.75494629 41.35171875 8.14575195 42.2734375 C6.43791456 44.85398284 4.72014065 47.42764594 3 50 C2.2129148 51.18578206 1.42635651 52.37191427 0.640625 53.55859375 C-0.62130336 55.45905786 -1.88791157 57.35642653 -3.16015625 59.25 C-4.49275956 61.2418317 -5.8112994 63.24309595 -7.12109375 65.25 C-7.82363281 66.3225 -8.52617187 67.395 -9.25 68.5 C-9.87390625 69.4590625 -10.4978125 70.418125 -11.140625 71.40625 C-12.91404645 73.88009841 -14.78415608 75.92142075 -17 78 C-15.43025513 69.46096614 -12.41027686 61.53571818 -9.375 53.4375 C-8.85363074 52.03340201 -8.33279306 50.62910651 -7.8125 49.22460938 C-6.5477867 45.81410757 -5.27590226 42.40633417 -4 39 C-5.27875 39.20625 -6.5575 39.4125 -7.875 39.625 C-10.0546875 39.9765625 -10.0546875 39.9765625 -12 40 C-12.66 39.34 -13.32 38.68 -14 38 C-12.32867748 33.39146736 -10.65628271 28.78332577 -8.98291016 24.17553711 C-8.41425855 22.60923692 -7.84589576 21.04283185 -7.27783203 19.47631836 C-6.45942591 17.21961005 -5.63996853 14.96328584 -4.8203125 12.70703125 C-4.56814972 12.01100296 -4.31598694 11.31497467 -4.05618286 10.59785461 C-2.7614902 7.03724616 -1.40764095 3.51910237 0 0 Z " fill="#F5C420" transform="translate(294,78)"/>
<path d="M0 0 C1.485 1.485 1.485 1.485 3 3 C0.91999408 11.29052004 -0.84859637 17.84859637 -7 24 C-10.13399208 29.04197259 -10.49036808 33.11718503 -10.4375 38.875 C-10.45748047 39.63941406 -10.47746094 40.40382812 -10.49804688 41.19140625 C-10.49367744 46.33859832 -9.47092341 49.8258619 -6.84741211 54.25952148 C-5.47855127 57.0709905 -6.098676 59.10288714 -7 62 C-7.2475 62.9075 -7.495 63.815 -7.75 64.75 C-9 67 -9 67 -11.375 68.25 C-12.24125 68.4975 -13.1075 68.745 -14 69 C-14.66 69.28875 -15.32 69.5775 -16 69.875 C-18 70 -18 70 -20.75 68.0625 C-21.4925 67.381875 -22.235 66.70125 -23 66 C-22.855625 65.484375 -22.71125 64.96875 -22.5625 64.4375 C-21.84190099 61.31490429 -21.42733561 58.17449308 -21 55 C-23.97 54.34 -26.94 53.68 -30 53 C-30.8125 49.75 -30.8125 49.75 -31 46 C-28.625 43.75 -28.625 43.75 -26 42 C-25.67 41.01 -25.34 40.02 -25 39 C-27.71604715 36.12579877 -27.71604715 36.12579877 -31 34 C-31.125 28.25 -31.125 28.25 -30 26 C-28.1875 25.62109375 -28.1875 25.62109375 -26 25.4375 C-23.21067942 25.37334592 -23.21067942 25.37334592 -21 24 C-20.70613847 20.27775401 -20.85190829 19.22213757 -23 16 C-22.76700976 13.51477075 -22.15108573 12.2086422 -20.6875 10.1875 C-19 9 -19 9 -16.9375 9.25 C-15 10 -15 10 -13 11 C-11.00039988 11.039992 -8.99952758 11.04346799 -7 11 C-6.67 8.03 -6.34 5.06 -6 2 C-4.02 1.34 -2.04 0.68 0 0 Z " fill="#020102" transform="translate(287,78)"/>
<path d="M0 0 C0.33 1.32 0.66 2.64 1 4 C1.99 3.67 2.98 3.34 4 3 C4.33 2.34 4.66 1.68 5 1 C6.98 1 8.96 1 11 1 C9.5884681 4.9280509 7.72612488 8.12011596 5.375 11.5625 C1.80993441 16.80638738 -1.68286423 22.09101443 -5.140625 27.40625 C-6.91404645 29.88009841 -8.78415608 31.92142075 -11 34 C-9.52240282 26.34409815 -7.07301905 19.2432297 -4.375 11.9375 C-3.95476562 10.78572266 -3.53453125 9.63394531 -3.1015625 8.44726562 C-2.07271705 5.62963206 -1.03876545 2.81398816 0 0 Z " fill="#F4C530" transform="translate(288,122)"/>
<path d="M0 0 C6.93 0 13.86 0 21 0 C20.16131165 3.3547534 19.36944691 5.39591686 17.71484375 8.328125 C17.04291992 9.52695313 17.04291992 9.52695313 16.35742188 10.75 C15.65456055 11.9875 15.65456055 11.9875 14.9375 13.25 C14.46505859 14.09046875 13.99261719 14.9309375 13.50585938 15.796875 C12.34142039 17.86698876 11.1726855 19.93455014 10 22 C9.67 22 9.34 22 9 22 C9 20.02 9 18.04 9 16 C9.66 16 10.32 16 11 16 C11 15.01 11 14.02 11 13 C11.66 13 12.32 13 13 13 C13.13277344 12.42765625 13.26554687 11.8553125 13.40234375 11.265625 C14.33296541 7.73777818 15.69449991 4.40565241 17 1 C11.72 1 6.44 1 1 1 C0.67 1.66 0.34 2.32 0 3 C0 2.01 0 1.02 0 0 Z " fill="#ECC256" transform="translate(294,78)"/>
<path d="M0 0 C0.85221996 3.40887983 1.10783755 5.80434631 1.0625 9.25 C1.05347656 10.14203125 1.04445313 11.0340625 1.03515625 11.953125 C1.02355469 12.62859375 1.01195312 13.3040625 1 14 C2.65 13.67 4.3 13.34 6 13 C5.67 15.31 5.34 17.62 5 20 C4.67 19.01 4.34 18.02 4 17 C4.33 16.34 4.66 15.68 5 15 C3.72125 15.20625 2.4425 15.4125 1.125 15.625 C-1.0546875 15.9765625 -1.0546875 15.9765625 -3 16 C-3.66 15.34 -4.32 14.68 -5 14 C-3.35 9.38 -1.7 4.76 0 0 Z " fill="#F1C944" transform="translate(285,102)"/>
<path d="M0 0 C0.99 0.33 1.98 0.66 3 1 C-1.455 7.93 -1.455 7.93 -6 15 C-6.66 14.34 -7.32 13.68 -8 13 C-8 12.01 -8 11.02 -8 10 C-7.34 10 -6.68 10 -6 10 C-6.66 8.02 -7.32 6.04 -8 4 C-7.34 4 -6.68 4 -6 4 C-6 4.66 -6 5.32 -6 6 C-1.93975679 3.96197865 -1.93975679 3.96197865 0 0 Z " fill="#EDC438" transform="translate(306,108)"/>
<path d="M0 0 C0.33 0 0.66 0 1 0 C1 1.65 1 3.3 1 5 C1.99 4.67 2.98 4.34 4 4 C2.40956621 9.08938811 -0.7446951 12.87456643 -4 17 C-5.3274855 13.01754349 -3.99907829 10.55210457 -2.5625 6.8125 C-2.19801758 5.83120117 -2.19801758 5.83120117 -1.82617188 4.83007812 C-1.2256707 3.21696714 -0.61390797 1.6080565 0 0 Z " fill="#D1A83E" transform="translate(282,139)"/>
<path d="M0 0 C0.66 0.33 1.32 0.66 2 1 C-0.31 5.29 -2.62 9.58 -5 14 C-5.33 14 -5.66 14 -6 14 C-6 12.02 -6 10.04 -6 8 C-5.34 8 -4.68 8 -4 8 C-4 7.01 -4 6.02 -4 5 C-3.34 5 -2.68 5 -2 5 C-1.855625 4.360625 -1.71125 3.72125 -1.5625 3.0625 C-1 1 -1 1 0 0 Z " fill="#DDB43B" transform="translate(309,86)"/>
<path d="M0 0 C0.99 0.33 1.98 0.66 3 1 C3 3.31 3 5.62 3 8 C1.68 8 0.36 8 -1 8 C-1.04241723 5.66705225 -1.04092937 3.33297433 -1 1 C-0.67 0.67 -0.34 0.34 0 0 Z " fill="#020202" transform="translate(107,175)"/>
<path d="M0 0 C0.99 0.33 1.98 0.66 3 1 C2.74438677 3.3431213 2.40729228 5.67843403 2 8 C1.01 8.495 1.01 8.495 0 9 C-0.73080266 7.02253397 -1.39421747 5.01927511 -2 3 C-1 1 -1 1 0 0 Z " fill="#EDB624" transform="translate(288,131)"/>
<path d="M0 0 C0.99 0.33 1.98 0.66 3 1 C3 3.31 3 5.62 3 8 C1.68 7.67 0.36 7.34 -1 7 C-1.04254356 5.00045254 -1.04080783 2.99958364 -1 1 C-0.67 0.67 -0.34 0.34 0 0 Z " fill="#020202" transform="translate(279,175)"/>
<path d="M0 0 C0.33 0 0.66 0 1 0 C1.33 2.31 1.66 4.62 2 7 C1.0409375 7.37125 1.0409375 7.37125 0.0625 7.75 C-2.18741541 8.81562433 -2.18741541 8.81562433 -2.75 11.125 C-2.8325 11.74375 -2.915 12.3625 -3 13 C-4.23593891 9.29218328 -3.5678132 8.32489747 -2.0625 4.8125 C-1.68222656 3.91144531 -1.30195313 3.01039062 -0.91015625 2.08203125 C-0.60980469 1.39496094 -0.30945313 0.70789063 0 0 Z " fill="#DFB53B" transform="translate(290,89)"/>
<path d="M0 0 C2.67927341 4.01891012 2.15601248 6.24161923 2 11 C1.01 11 0.02 11 -1 11 C-1.125 3.375 -1.125 3.375 0 0 Z " fill="#030303" transform="translate(147,177)"/>
<path d="M0 0 C0.33 0 0.66 0 1 0 C1 2.31 1 4.62 1 7 C1.99 7.33 2.98 7.66 4 8 C2.625 9.5 2.625 9.5 1 11 C0.34 11 -0.32 11 -1 11 C-1.125 3.375 -1.125 3.375 0 0 Z " fill="#E1B832" transform="translate(284,133)"/>
<path d="M0 0 C0.66 0.66 1.32 1.32 2 2 C-1 6 -1 6 -4 10 C-4.66 9.67 -5.32 9.34 -6 9 C-4.02 6.03 -2.04 3.06 0 0 Z " fill="#281C09" transform="translate(286,145)"/>
<path d="M0 0 C1.98 0.495 1.98 0.495 4 1 C3.01 2.98 2.02 4.96 1 7 C0.34 7 -0.32 7 -1 7 C-0.67 4.69 -0.34 2.38 0 0 Z " fill="#EEC23F" transform="translate(311,79)"/>
</svg>
